# xmcd
#
# Track frame offsets: 
#        150
#        23949
#        48662
#        73779
#        91534
#        111357
#        137224
#        154335
#        177206
#        205454
#        237012
#        259902
#        267924
#
# Disc length: 4164 seconds
#
# Revision: 5
# Processed by: cddbd v1.5.2PL0 Copyright (c) Steve Scherf et al.
# Submitted via: ExactAudioCopy v1.0b6
#
DISCID=bc10420d
DTITLE=Toto - XX 1977-1997 (紙ジャケット仕様) 2011 DSD Mastering MHCP-SICP-311
DTITLE=9
DYEAR=1998
DGENRE=Rock
TTITLE0=Goin' Home
TTITLE1=Tale Of A Man
TTITLE2=Last Night
TTITLE3=In A Word
TTITLE4=Modern Eyes
TTITLE5=Right Part Of Me
TTITLE6=Mrs. Johnson
TTITLE7=Miss Sun
TTITLE8=Love In A Man's World
TTITLE9=On The Run
TTITLE10=Dave's Gone Skiing
TTITLE11=Baba Mnumzane
TTITLE12=Africa
EXTD=
EXTT0=
EXTT1=
EXTT2=
EXTT3=
EXTT4=
EXTT5=
EXTT6=
EXTT7=
EXTT8=
EXTT9=
EXTT10=
EXTT11=
EXTT12=
PLAYORDER=
